<svg width="52" height="30" viewBox="0 0 52 30" fill="none" xmlns="http://www.w3.org/2000/svg">
<path d="M9.77752 0.208056C12.8579 0.208056 14.8808 1.72526 14.8808 4.25394V11.771H11.1338V5.72516C11.1338 3.95509 10.2833 3.05856 8.65111 3.05856C6.74311 3.05856 5.66267 4.23095 5.66267 6.46078V11.771H1.91564V0.437935H5.66267V1.93215C6.53621 0.828731 7.8925 0.208056 9.77752 0.208056Z" fill="white"/>
<mask id="path-2-outside-1_106_35" maskUnits="userSpaceOnUse" x="0" y="12" width="52" height="18" fill="black">
<rect fill="white" y="12" width="52" height="18"/>
<path d="M6.81117 24.2C4.15117 24.2 2.19117 23.22 1.15117 22.16L3.31117 20.52C4.25117 21.28 5.43117 21.78 6.99117 21.78C8.37117 21.78 8.89117 21.44 8.89117 21.04C8.89117 19.8 1.95117 21.62 1.95117 17.26C1.95117 14.94 4.41117 13.94 6.79117 13.94C9.15117 13.94 10.8712 14.8 11.8112 15.46L9.97117 17.26C8.85117 16.72 7.75117 16.36 6.57117 16.36C5.71117 16.36 4.99117 16.52 4.99117 16.92C4.99117 18 12.0912 16.3 12.0912 20.56C12.0912 22.68 10.0312 24.2 6.81117 24.2ZM21.3341 18.68V14.14H24.5941V24H21.3341V22.94C20.4741 23.82 19.2741 24.2 17.8541 24.2C15.0141 24.2 13.3341 22.78 13.3341 20.22V14.14H16.5741V19.64C16.5741 21 17.3741 21.72 18.7941 21.72C20.8941 21.72 21.3341 20.32 21.3341 18.68ZM33.4196 13.94C36.0996 13.94 37.8596 15.26 37.8596 17.46V24H34.5996V18.74C34.5996 17.2 33.8596 16.42 32.4396 16.42C30.7796 16.42 29.8396 17.44 29.8396 19.38V24H26.5796V14.14H29.8396V15.44C30.5996 14.48 31.7796 13.94 33.4196 13.94ZM46.7841 22.66C49.3241 22.86 50.6241 23.56 50.6241 25.2C50.6241 27.26 48.4841 28.5 44.9841 28.5C41.4641 28.5 39.0641 27.24 39.0641 25.34C39.0641 25.14 39.1441 24.76 39.1441 24.72L40.4841 23.84C39.7641 23.38 39.4041 22.78 39.4041 21.94C39.4041 21.16 39.7441 20.48 40.4641 19.92C39.8841 19.32 39.5441 18.56 39.5441 17.7C39.5441 15.54 41.7441 13.94 44.6041 13.94C45.6441 13.94 46.5841 14.14 47.3841 14.52L49.3241 13.1L50.7041 15.14L49.2841 16.12C49.5841 16.62 49.7441 17.18 49.7441 17.78C49.7441 19.94 47.7441 21.42 44.7441 21.42C43.8241 21.42 42.9841 21.28 42.2441 21.02C42.1041 21.16 42.0241 21.32 42.0241 21.48C42.0241 22.14 42.6241 22.34 46.7841 22.66ZM44.6441 16.16C43.5641 16.16 42.8041 16.76 42.8041 17.64C42.8041 18.56 43.5641 19.2 44.6841 19.2C45.7441 19.2 46.5241 18.56 46.5241 17.64C46.5241 16.76 45.7641 16.16 44.6441 16.16ZM45.1041 26.34C46.6441 26.34 47.3841 26.14 47.3841 25.64C47.3841 25.12 46.6841 25.02 44.0841 24.76C43.5841 24.72 43.1441 24.66 42.7241 24.58L42.2041 25.22C42.1841 25.26 42.1841 25.32 42.1841 25.34C42.1841 26.1 43.7841 26.34 45.1041 26.34Z"/>
</mask>
<path d="M1.15117 22.16L0.765032 21.6514L0.187697 22.0898L0.695366 22.6072L1.15117 22.16ZM3.31117 20.52L3.71265 20.0234L3.32355 19.7088L2.92503 20.0114L3.31117 20.52ZM11.8112 15.46L12.2577 15.9165L12.8071 15.379L12.1781 14.9374L11.8112 15.46ZM9.97117 17.26L9.69385 17.8352L10.0974 18.0298L10.4177 17.7165L9.97117 17.26ZM6.81117 23.5614C4.30361 23.5614 2.51419 22.6375 1.60698 21.7128L0.695366 22.6072C1.86815 23.8025 3.99874 24.8386 6.81117 24.8386V23.5614ZM1.53731 22.6686L3.69731 21.0286L2.92503 20.0114L0.765032 21.6514L1.53731 22.6686ZM2.9097 21.0166C3.95801 21.8641 5.27835 22.4186 6.99117 22.4186V21.1414C5.584 21.1414 4.54433 20.6959 3.71265 20.0234L2.9097 21.0166ZM6.99117 22.4186C7.71776 22.4186 8.29697 22.3314 8.71891 22.1431C9.15407 21.9489 9.52973 21.5837 9.52973 21.04H8.25262C8.25262 20.8963 8.36827 20.9011 8.19844 20.9769C8.01537 21.0586 7.64459 21.1414 6.99117 21.1414V22.4186ZM9.52973 21.04C9.52973 20.492 9.11025 20.2218 8.83419 20.1091C8.55511 19.9953 8.20615 19.9411 7.87691 19.9047C7.53686 19.8671 7.13812 19.8416 6.74315 19.8119C6.33945 19.7816 5.92272 19.7459 5.51046 19.6877C4.67035 19.5691 3.92796 19.366 3.40518 18.9949C2.92539 18.6543 2.58973 18.1458 2.58973 17.26H1.31262C1.31262 18.5542 1.84445 19.4532 2.66591 20.0363C3.44439 20.589 4.43699 20.8259 5.33189 20.9523C5.78712 21.0166 6.2379 21.0547 6.64748 21.0854C7.06579 21.1169 7.42611 21.1398 7.73668 21.1741C8.05807 21.2096 8.2513 21.2506 8.35175 21.2916C8.45522 21.3338 8.25262 21.278 8.25262 21.04H9.52973ZM2.58973 17.26C2.58973 16.372 3.04212 15.7303 3.80388 15.2795C4.58901 14.8149 5.67655 14.5786 6.79117 14.5786V13.3014C5.52579 13.3014 4.19333 13.5651 3.15347 14.1805C2.09022 14.8097 1.31262 15.828 1.31262 17.26H2.58973ZM6.79117 14.5786C8.99163 14.5786 10.586 15.38 11.4442 15.9826L12.1781 14.9374C11.1563 14.22 9.31072 13.3014 6.79117 13.3014V14.5786ZM11.3646 15.0035L9.52464 16.8035L10.4177 17.7165L12.2577 15.9165L11.3646 15.0035ZM10.2485 16.6848C9.08407 16.1234 7.88496 15.7214 6.57117 15.7214V16.9986C7.61738 16.9986 8.61828 17.3166 9.69385 17.8352L10.2485 16.6848ZM6.57117 15.7214C6.11477 15.7214 5.64535 15.7625 5.26791 15.8806C5.08059 15.9392 4.8697 16.0308 4.69518 16.1845C4.50574 16.3512 4.35262 16.6009 4.35262 16.92H5.62973C5.62973 17.0391 5.56661 17.1188 5.53904 17.143C5.52639 17.1542 5.54925 17.1308 5.64944 17.0994C5.84699 17.0375 6.16758 16.9986 6.57117 16.9986V15.7214ZM4.35262 16.92C4.35262 17.1895 4.47342 17.4098 4.63821 17.5617C4.78424 17.6962 4.95619 17.7712 5.09297 17.8171C5.36586 17.9087 5.71084 17.9518 6.04411 17.9814C6.77399 18.0461 7.5791 18.0605 8.45474 18.1802C9.31476 18.2977 10.0807 18.5022 10.6206 18.8725C11.1174 19.2133 11.4526 19.7112 11.4526 20.56H12.7297C12.7297 19.2788 12.1775 18.3917 11.343 17.8194C10.5516 17.2765 9.54259 17.0398 8.62761 16.9148C7.72824 16.792 6.75836 16.7626 6.15699 16.7093C5.82463 16.6798 5.61492 16.6452 5.49953 16.6064C5.44217 16.5872 5.46159 16.5837 5.5036 16.6225C5.5644 16.6785 5.62973 16.7855 5.62973 16.92H4.35262ZM11.4526 20.56C11.4526 21.388 11.0595 22.1126 10.2914 22.6526C9.50941 23.2024 8.32859 23.5614 6.81117 23.5614V24.8386C8.51376 24.8386 9.97294 24.4376 11.0259 23.6974C12.0928 22.9474 12.7297 21.852 12.7297 20.56H11.4526ZM21.3341 14.14V13.5014H20.6956V14.14H21.3341ZM24.5941 14.14H25.2327V13.5014H24.5941V14.14ZM24.5941 24V24.6386H25.2327V24H24.5941ZM21.3341 24H20.6956V24.6386H21.3341V24ZM21.3341 22.94H21.9727V21.373L20.8775 22.4937L21.3341 22.94ZM13.3341 14.14V13.5014H12.6956V14.14H13.3341ZM16.5741 14.14H17.2127V13.5014H16.5741V14.14ZM21.9727 18.68V14.14H20.6956V18.68H21.9727ZM21.3341 14.7786H24.5941V13.5014H21.3341V14.7786ZM23.9556 14.14V24H25.2327V14.14H23.9556ZM24.5941 23.3614H21.3341V24.6386H24.5941V23.3614ZM21.9727 24V22.94H20.6956V24H21.9727ZM20.8775 22.4937C20.1743 23.2132 19.163 23.5614 17.8541 23.5614V24.8386C19.3852 24.8386 20.774 24.4268 21.7908 23.3863L20.8775 22.4937ZM17.8541 23.5614C16.5327 23.5614 15.5713 23.2309 14.9485 22.6885C14.3388 22.1574 13.9727 21.3529 13.9727 20.22H12.6956C12.6956 21.6471 13.1695 22.8326 14.1098 23.6515C15.037 24.4591 16.3356 24.8386 17.8541 24.8386V23.5614ZM13.9727 20.22V14.14H12.6956V20.22H13.9727ZM13.3341 14.7786H16.5741V13.5014H13.3341V14.7786ZM15.9356 14.14V19.64H17.2127V14.14H15.9356ZM15.9356 19.64C15.9356 20.4463 16.1762 21.1564 16.7175 21.6583C17.2509 22.1528 17.9835 22.3586 18.7941 22.3586V21.0814C18.1847 21.0814 17.8073 20.9272 17.5858 20.7217C17.3721 20.5236 17.2127 20.1937 17.2127 19.64H15.9356ZM18.7941 22.3586C20.0026 22.3586 20.8634 21.9434 21.3818 21.1709C21.8642 20.4521 21.9727 19.5307 21.9727 18.68H20.6956C20.6956 19.4693 20.5841 20.0679 20.3214 20.4591C20.0949 20.7966 19.6857 21.0814 18.7941 21.0814V22.3586ZM37.8596 24V24.6386H38.4982V24H37.8596ZM34.5996 24H33.9611V24.6386H34.5996V24ZM29.8396 24V24.6386H30.4782V24H29.8396ZM26.5796 24H25.9411V24.6386H26.5796V24ZM26.5796 14.14V13.5014H25.9411V14.14H26.5796ZM29.8396 14.14H30.4782V13.5014H29.8396V14.14ZM29.8396 15.44H29.2011V17.2754L30.3403 15.8364L29.8396 15.44ZM33.4196 14.5786C34.6629 14.5786 35.6203 14.8854 36.2517 15.3783C36.8655 15.8575 37.2211 16.5486 37.2211 17.46H38.4982C38.4982 16.1714 37.9738 15.1025 37.0375 14.3717C36.1189 13.6546 34.8563 13.3014 33.4196 13.3014V14.5786ZM37.2211 17.46V24H38.4982V17.46H37.2211ZM37.8596 23.3614H34.5996V24.6386H37.8596V23.3614ZM35.2382 24V18.74H33.9611V24H35.2382ZM35.2382 18.74C35.2382 17.8776 35.0314 17.1146 34.5184 16.5663C33.9983 16.0103 33.264 15.7814 32.4396 15.7814V17.0586C33.0353 17.0586 33.3809 17.2197 33.5858 17.4387C33.7978 17.6654 33.9611 18.0624 33.9611 18.74H35.2382ZM32.4396 15.7814C31.4751 15.7814 30.6322 16.0823 30.04 16.7481C29.4584 17.402 29.2011 18.3159 29.2011 19.38H30.4782C30.4782 18.5041 30.6908 17.938 30.9942 17.5969C31.287 17.2677 31.7441 17.0586 32.4396 17.0586V15.7814ZM29.2011 19.38V24H30.4782V19.38H29.2011ZM29.8396 23.3614H26.5796V24.6386H29.8396V23.3614ZM27.2182 24V14.14H25.9411V24H27.2182ZM26.5796 14.7786H29.8396V13.5014H26.5796V14.7786ZM29.2011 14.14V15.44H30.4782V14.14H29.2011ZM30.3403 15.8364C30.9536 15.0616 31.9295 14.5786 33.4196 14.5786V13.3014C31.6297 13.3014 30.2456 13.8984 29.339 15.0436L30.3403 15.8364ZM46.7841 22.66L46.8343 22.0234L46.8331 22.0233L46.7841 22.66ZM39.1441 24.72L38.7936 24.1863L38.5056 24.3754V24.72H39.1441ZM40.4841 23.84L40.8347 24.3737L41.6586 23.8326L40.8279 23.3019L40.4841 23.84ZM40.4641 19.92L40.8562 20.424L41.4175 19.9875L40.9233 19.4762L40.4641 19.92ZM47.3841 14.52L47.1102 15.0968L47.4541 15.2601L47.7613 15.0353L47.3841 14.52ZM49.3241 13.1L49.853 12.7422L49.4817 12.1933L48.947 12.5847L49.3241 13.1ZM50.7041 15.14L51.0668 15.6655L51.5875 15.3062L51.233 14.7822L50.7041 15.14ZM49.2841 16.12L48.9214 15.5945L48.4283 15.9348L48.7366 16.4485L49.2841 16.12ZM42.2441 21.02L42.4558 20.4175L42.0767 20.2844L41.7926 20.5685L42.2441 21.02ZM44.0841 24.76L44.1477 24.1245L44.1351 24.1235L44.0841 24.76ZM42.7241 24.58L42.8436 23.9527L42.469 23.8814L42.2285 24.1773L42.7241 24.58ZM42.2041 25.22L41.7085 24.8173L41.6643 24.8717L41.633 24.9344L42.2041 25.22ZM46.734 23.2966C47.9778 23.3945 48.809 23.6105 49.3161 23.9302C49.7655 24.2135 49.9856 24.5902 49.9856 25.2H51.2627C51.2627 24.1698 50.8328 23.3765 49.9972 22.8498C49.2193 22.3595 48.1305 22.1255 46.8343 22.0234L46.734 23.2966ZM49.9856 25.2C49.9856 25.9649 49.6064 26.5974 48.7948 27.071C47.9564 27.5602 46.6724 27.8614 44.9841 27.8614V29.1386C46.7959 29.1386 48.3319 28.8198 49.4385 28.174C50.5719 27.5126 51.2627 26.4951 51.2627 25.2H49.9856ZM44.9841 27.8614C43.289 27.8614 41.9219 27.5564 41.0037 27.0686C40.0904 26.5834 39.7027 25.9736 39.7027 25.34H38.4256C38.4256 26.6064 39.2379 27.5766 40.4046 28.1964C41.5664 28.8136 43.1593 29.1386 44.9841 29.1386V27.8614ZM39.7027 25.34C39.7027 25.2979 39.7139 25.2006 39.7347 25.0709C39.7441 25.0121 39.7531 24.9601 39.7613 24.912C39.765 24.8898 39.769 24.8656 39.7722 24.8445C39.7738 24.834 39.7758 24.8201 39.7775 24.8053C39.7784 24.7974 39.7827 24.7622 39.7827 24.72H38.5056C38.5056 24.6976 38.5069 24.6805 38.5074 24.674C38.508 24.6658 38.5087 24.66 38.509 24.6575C38.5095 24.6527 38.5098 24.6512 38.5092 24.6554C38.508 24.6634 38.5058 24.677 38.502 24.6992C38.4951 24.7399 38.4842 24.8029 38.4736 24.8691C38.4544 24.9894 38.4256 25.1821 38.4256 25.34H39.7027ZM39.4947 25.2537L40.8347 24.3737L40.1336 23.3063L38.7936 24.1863L39.4947 25.2537ZM40.8279 23.3019C40.5338 23.114 40.3453 22.9184 40.2275 22.7138C40.1111 22.5117 40.0427 22.2648 40.0427 21.94H38.7656C38.7656 22.4552 38.8772 22.9283 39.1208 23.3512C39.363 23.7716 39.7145 24.106 40.1404 24.3781L40.8279 23.3019ZM40.0427 21.94C40.0427 21.3788 40.2737 20.8771 40.8562 20.424L40.0721 19.416C39.2145 20.0829 38.7656 20.9412 38.7656 21.94H40.0427ZM40.9233 19.4762C40.4481 18.9846 40.1827 18.3802 40.1827 17.7H38.9056C38.9056 18.7398 39.3202 19.6554 40.005 20.3638L40.9233 19.4762ZM40.1827 17.7C40.1827 16.0585 41.9041 14.5786 44.6041 14.5786V13.3014C41.5842 13.3014 38.9056 15.0215 38.9056 17.7H40.1827ZM44.6041 14.5786C45.5629 14.5786 46.4072 14.7629 47.1102 15.0968L47.6581 13.9432C46.761 13.5171 45.7254 13.3014 44.6041 13.3014V14.5786ZM47.7613 15.0353L49.7013 13.6153L48.947 12.5847L47.007 14.0047L47.7613 15.0353ZM48.7952 13.4578L50.1752 15.4978L51.233 14.7822L49.853 12.7422L48.7952 13.4578ZM50.3414 14.6145L48.9214 15.5945L49.6468 16.6455L51.0668 15.6655L50.3414 14.6145ZM48.7366 16.4485C48.978 16.8509 49.1056 17.2976 49.1056 17.78H50.3827C50.3827 17.0624 50.1903 16.3891 49.8317 15.7915L48.7366 16.4485ZM49.1056 17.78C49.1056 18.6399 48.7164 19.3648 47.9922 19.8946C47.2536 20.4348 46.1465 20.7814 44.7441 20.7814V22.0586C46.3418 22.0586 47.7346 21.6652 48.7461 20.9254C49.7718 20.1752 50.3827 19.0801 50.3827 17.78H49.1056ZM44.7441 20.7814C43.8886 20.7814 43.1209 20.6512 42.4558 20.4175L42.0325 21.6224C42.8474 21.9088 43.7597 22.0586 44.7441 22.0586V20.7814ZM41.7926 20.5685C41.5733 20.7878 41.3856 21.101 41.3856 21.48H42.6627C42.6627 21.5083 42.6554 21.5228 42.6564 21.5206C42.658 21.5173 42.6678 21.4994 42.6957 21.4715L41.7926 20.5685ZM41.3856 21.48C41.3856 21.7571 41.4555 22.0843 41.7403 22.3581C41.9836 22.592 42.3214 22.7223 42.6849 22.8159C43.4204 23.0053 44.6719 23.138 46.7352 23.2967L46.8331 22.0233C44.7364 21.862 43.6078 21.7347 43.0034 21.5791C42.6968 21.5002 42.6246 21.4367 42.6254 21.4375C42.6678 21.4782 42.6627 21.5329 42.6627 21.48H41.3856ZM44.6441 15.5214C43.9907 15.5214 43.3809 15.7029 42.9202 16.0714C42.4492 16.4482 42.1656 16.9992 42.1656 17.64H43.4427C43.4427 17.4008 43.5391 17.2118 43.718 17.0686C43.9074 16.9171 44.2176 16.7986 44.6441 16.7986V15.5214ZM42.1656 17.64C42.1656 18.2897 42.4399 18.8594 42.9153 19.2556C43.382 19.6444 44.006 19.8386 44.6841 19.8386V18.5614C44.2423 18.5614 43.9263 18.4356 43.7329 18.2744C43.5484 18.1206 43.4427 17.9103 43.4427 17.64H42.1656ZM44.6841 19.8386C45.9877 19.8386 47.1627 19.0126 47.1627 17.64H45.8856C45.8856 18.1074 45.5005 18.5614 44.6841 18.5614V19.8386ZM47.1627 17.64C47.1627 16.9984 46.8783 16.4458 46.3993 16.0684C45.9321 15.7003 45.3127 15.5214 44.6441 15.5214V16.7986C45.0956 16.7986 45.4162 16.9197 45.609 17.0716C45.79 17.2142 45.8856 17.4016 45.8856 17.64H47.1627ZM45.1041 26.9786C45.883 26.9786 46.532 26.9301 47.004 26.7895C47.2416 26.7187 47.4894 26.609 47.685 26.4225C47.9006 26.2171 48.0227 25.9455 48.0227 25.64H46.7456C46.7456 25.5845 46.7752 25.5254 46.8039 25.4981C46.8126 25.4898 46.7792 25.5238 46.6393 25.5655C46.3563 25.6499 45.8653 25.7014 45.1041 25.7014V26.9786ZM48.0227 25.64C48.0227 25.3324 47.9034 25.0413 47.6375 24.8246C47.4177 24.6456 47.1344 24.5492 46.8611 24.4823C46.3066 24.3464 45.4267 24.2525 44.1477 24.1246L44.0206 25.3954C45.3416 25.5275 46.1117 25.6136 46.5572 25.7227C46.7839 25.7783 46.8381 25.8207 46.8308 25.8147C46.7774 25.7712 46.7456 25.6876 46.7456 25.64H48.0227ZM44.1351 24.1235C43.6568 24.0852 43.2397 24.0282 42.8436 23.9527L42.6047 25.2073C43.0485 25.2918 43.5115 25.3548 44.0332 25.3965L44.1351 24.1235ZM42.2285 24.1773L41.7085 24.8173L42.6997 25.6227L43.2197 24.9827L42.2285 24.1773ZM41.633 24.9344C41.5731 25.0542 41.5575 25.167 41.552 25.217C41.5453 25.2772 41.5456 25.3276 41.5456 25.34H42.8227C42.8227 25.3324 42.823 25.3428 42.8213 25.358C42.8204 25.3663 42.8182 25.3823 42.813 25.4037C42.8081 25.4239 42.7976 25.4609 42.7753 25.5056L41.633 24.9344ZM41.5456 25.34C41.5456 25.7898 41.7939 26.1171 42.069 26.3257C42.3323 26.5254 42.6621 26.6535 42.9802 26.7408C43.6235 26.9173 44.4176 26.9786 45.1041 26.9786V25.7014C44.4707 25.7014 43.8048 25.6427 43.3181 25.5092C43.0712 25.4415 42.9185 25.3671 42.8406 25.3081C42.7744 25.2579 42.8227 25.2702 42.8227 25.34H41.5456Z" fill="white" mask="url(#path-2-outside-1_106_35)"/>
<path d="M29.6834 12.0009C25.2697 12.0009 22.5341 9.56415 22.5341 6.13895C22.5341 2.71374 25.1778 0.208056 29.6604 0.208056C33.0396 0.208056 35.0396 1.38044 36.3039 3.61027L32.8557 4.8976C32.35 3.97808 31.2696 3.28844 29.6604 3.28844C27.4995 3.28844 26.2352 4.5068 26.2352 6.13895C26.2352 7.77109 27.5455 8.92049 29.6604 8.92049C31.2236 8.92049 32.419 8.3228 32.8098 7.28835L36.166 8.57567C35.1775 10.7825 32.8557 12.0009 29.6834 12.0009ZM44.5212 12.0009C40.2685 12.0009 37.4179 9.67909 37.4179 6.09297C37.4179 2.52984 40.2225 0.208056 44.5212 0.208056C48.8659 0.208056 51.6245 2.50685 51.6245 6.09297C51.6245 9.6561 48.797 12.0009 44.5212 12.0009ZM44.5212 8.92049C46.5672 8.92049 47.9234 7.84006 47.9234 6.09297C47.9234 4.34589 46.5901 3.28844 44.5212 3.28844C42.4523 3.28844 41.119 4.34589 41.119 6.09297C41.119 7.81707 42.4753 8.92049 44.5212 8.92049Z" fill="white"/>
<rect x="17" width="4" height="12" fill="white"/>
</svg>
